PSF_ID_stride1.mot
nRows=11
nColumns=38

name PSF_ID_stride1.mot
datacolumns 38
datarows 11
range 0.6941304000 0.7580459000
endheader
time	pelvis_tilt_moment	pelvis_list_moment	pelvis_rotation_moment	pelvis_tx_force	pelvis_ty_force	pelvis_tz_force	hip_flexion_r_moment	hip_adduction_r_moment	hip_rotation_r_moment	knee_angle_r_moment	ankle_angle_r_moment	subtalar_angle_r_moment	mtp_angle_r_moment	hip_flexion_l_moment	hip_adduction_l_moment	hip_rotation_l_moment	knee_angle_l_moment	ankle_angle_l_moment	subtalar_angle_l_moment	mtp_angle_l_moment	lumbar_extension_moment	lumbar_bending_moment	lumbar_rotation_moment	arm_flex_r_moment	arm_add_r_moment	arm_rot_r_moment	elbow_flex_r_moment	pro_sup_r_moment	wrist_flex_r_moment	wrist_dev_r_moment	arm_flex_l_moment	arm_add_l_moment	arm_rot_l_moment	elbow_flex_l_moment	pro_sup_l_moment	wrist_flex_l_moment	wrist_dev_l_moment
        0.6941304000	      -21.8263919531	      -74.9966196745	      -53.9116715236	       57.9582597336	     -124.6030300862	       89.9865983455	     -141.2377960255	      -15.6593975226	       -4.0726810630	      -76.2483196074	       -2.6132543266	       -0.2359286823	       -0.1188074159	       75.2434965885	      -38.6928071124	       13.7880007954	       22.6125686903	        3.9743175878	       -1.1225467804	        0.1693565705	      -17.5070962963	       -0.4212173151	      -15.8939779868	       -3.0473414007	       -2.3029924899	       -1.7601320133	       -1.3845087646	       -0.0261028144	       -0.2103497773	        0.0936251469	       -0.2138089450	        2.2441365355	        2.0448367669	       -1.2875503799	        0.0833820366	        0.1843160282	        0.1725869385	
        0.7001162000	       -1.2765022571	      -67.0881402079	      -40.7803546696	       21.4081739323	       88.6793773848	      142.6150937592	     -113.9348201578	       -6.8495107356	       -2.8718628414	      -67.6397734209	       -1.1512084908	       -0.2486302852	       -0.0176079390	       62.8293626477	      -28.7429966076	       13.2123928306	       22.6421381759	        4.2058782119	       -1.0891433572	        0.2052763143	       -8.1706396476	      -13.7219074588	      -12.7849385646	       -4.0160022858	       -1.6365657426	       -1.1379254070	       -1.0306289162	       -0.0121263079	       -0.1407822577	        0.0902495201	       -2.2033501395	        1.6691669006	        1.8146711471	       -1.1539600919	        0.0683535751	        0.1630155504	        0.1634579225	
        0.7072008000	       38.7505084381	       40.5396678832	       -9.8362035439	      -12.8818013075	      289.7388961369	      112.4755125782	      -16.3836584351	      -16.7157149572	        7.5200396722	       -2.8889979231	       25.6267876038	        7.9028538342	        0.1296514367	       52.7475148945	      -18.1884996815	       11.3981654468	       21.5191178850	        4.4714062304	       -1.0346562857	        0.2414159393	       20.0338219960	      -30.5458993512	       -6.5498976472	       -4.8364695186	       -0.2294851204	        0.0174121906	        0.2578700102	       -0.0008280616	        0.0018999633	        0.0149749776	       -4.6822858691	        0.7753920483	        1.2923335005	       -0.1166842200	        0.0269455037	        0.1308233822	        0.0657579311	
        0.7120644000	       59.0400964114	       61.8660724240	        9.5329045338	      -40.8707411411	      417.3820740251	       94.1029056482	       -8.6649700906	      -27.3065427299	       21.1846889839	        3.9371803545	       18.1620572504	       15.4081035758	        0.2315314926	       49.9629333370	      -12.7178606742	        9.8192170538	       20.2230607690	        4.6137704612	       -0.9884077917	        0.2595947264	       42.6880200571	      -39.4832023396	       -1.6008476087	       -4.8678167536	        0.8550266661	        0.8496078564	        1.4628238339	        0.0013604038	        0.1108859558	       -0.0678674749	       -5.8918453920	        0.2031195753	        0.8545187566	        0.9501542344	       -0.0096844197	        0.1073046257	       -0.0374942799	
        0.7200510000	       72.0421787147	       70.8274755157	       35.3035594076	      -52.2409239653	      438.8173877036	       12.4011553376	      -30.5157187614	      -47.3071436094	       42.3710835165	        7.0126125258	       -7.9638899399	       28.4700365624	        0.3605052027	       53.3267418816	       -6.6758104529	        7.0884388099	       18.7230133343	        4.7200487594	       -0.8899788458	        0.2729007807	       67.7391824109	      -43.8234299676	        5.8125751587	       -3.7460209708	        2.1616847495	        1.8137050931	        3.2220304082	       -0.0030705673	        0.2475494527	       -0.2001267566	       -6.3373054975	       -0.3235281805	        0.2001190463	        2.5811579497	       -0.0635198411	        0.0691661396	       -0.1999744222	
        0.7259843000	       59.3208493022	       50.1898746419	       46.7930393637	      -24.7608841473	      284.7097192172	      -59.4635960003	      -70.3005336680	      -55.4263000650	       51.7885963684	        4.5173849630	      -35.4514106186	       36.2673747507	        0.4044844089	       59.5488035670	       -3.3325305708	        5.0747297453	       19.0376895318	        4.6504495494	       -0.7902187232	        0.2673170780	       68.7248253100	      -37.0966411329	        9.6438768102	       -2.2187189938	        2.3589095429	        1.9773309730	        3.8592761955	       -0.0095747627	        0.2831331679	       -0.2554222142	       -5.4707164703	       -0.2069446157	       -0.0790155675	        3.2112209343	       -0.0847096039	        0.0459343039	       -0.2673725515	
        0.7320645000	       29.0191247349	       10.6041339915	       51.4147129535	       28.6690739570	       23.9469600236	     -100.6075918395	     -120.3522863899	      -53.4123526442	       53.4439054643	        5.6610271320	      -59.8303312827	       41.6363408388	        0.3956720517	       65.2911717443	        0.2346183517	        3.0970023574	       20.6832920211	        4.4374542978	       -0.6656941497	        0.2495662357	       56.4375226705	      -23.5541141594	       11.6672088354	       -0.5129880455	        1.8533617103	        1.6709602524	        3.8509013817	       -0.0172286364	        0.2609861693	       -0.2659630729	       -3.9699258836	        0.3531284612	       -0.1116154578	        3.2599844828	       -0.0865039571	        0.0329789719	       -0.2788972438	
        0.7380454000	       -7.0705200647	      -30.4800932830	       50.5594940100	       87.4400618445	     -236.8357106711	      -93.9872430909	     -162.8672634633	      -43.3951190544	       48.5491638524	       15.5683642322	      -74.7437437719	       44.3590939617	        0.3436645840	       67.6954269254	        4.1579946336	        1.3502993406	       22.8785525038	        4.1275091963	       -0.5348374898	        0.2255392082	       40.6736023675	       -8.6203092987	       12.0955649343	        0.9372931223	        1.0184007672	        1.1345954296	        3.5419556470	       -0.0259997526	        0.2096754893	       -0.2557951457	       -2.3889768865	        1.1256530531	        0.0422956891	        3.0398126074	       -0.0770166795	        0.0337907052	       -0.2623235130	
        0.7440803000	      -35.5010027990	      -56.0098600311	       46.7873043981	      129.6818725553	     -403.9018656157	      -55.5213663024	     -185.3731399414	      -31.8886820344	       41.0724125166	       35.5853976199	      -82.6961486714	       45.2017876293	        0.2676720583	       66.5286060663	        8.0356733234	       -0.1145503954	       24.6373894557	        3.7911197491	       -0.4121285346	        0.2020714821	       32.0909343865	        2.0496661923	       11.7933379656	        2.0564130472	        0.4121459419	        0.6977445098	        3.4760457533	       -0.0370916269	        0.1702359974	       -0.2655581738	       -1.0362046135	        1.7795371031	        0.2102516307	        3.0529593644	       -0.0712929749	        0.0444758393	       -0.2658703782	
        0.7520585000	      -43.1885305095	      -44.7542875328	       43.6345859897	      132.0362959744	     -382.5085964998	      -16.0977920502	     -172.2813554344	      -24.7465546346	       36.1409266085	       74.1704889515	      -92.4113029100	       46.0764815111	        0.1671199493	       62.5467195038	       11.7994772622	       -1.7001165543	       24.9337034052	        3.4435151291	       -0.2776032499	        0.1829117571	       42.8663126844	        2.0412606325	       11.9614314836	        3.2715635398	        0.8056110633	        0.7558905163	        4.4837300632	       -0.0553107413	        0.1949352498	       -0.3622028567	        0.2363645673	        1.9099636179	        0.1154467682	        4.0781322792	       -0.0925688476	        0.0569355723	       -0.3669352890	
        0.7580459000	      -25.9506776297	       -7.5444093556	       46.8418476586	       92.8395851213	     -200.9089926335	      -26.5178641590	     -137.9850150154	      -27.1561711893	       40.2559618164	      105.6829250450	     -104.1641726645	       48.8358135926	        0.1099191425	       60.1739221867	       13.1850717843	       -2.9075008242	       23.3601338143	        3.2896407156	       -0.1864693389	        0.1797915351	       65.9734698803	       -9.0821190018	       13.4116815512	        4.2872594455	        2.1584501987	        1.3768399734	        6.1222461196	       -0.0695231870	        0.2822554743	       -0.5002487755	        0.9190856794	        1.3156724089	       -0.3244517274	        5.6376835078	       -0.1351704046	        0.0519929214	       -0.5212835584	
